# xmcd
#
# Track frame offsets:
#	150
#	11627
#	21377
#	34145
#	45320
#	56975
#	69150
#	79707
#	91565
#	101205
#	113542
#	126920
#	138030
#	151717
#	161902
#
# Disc length: 2326 seconds
#
# Revision: 0
# Processed by: cddbd v1.4b42PL1 Copyright (c) Steve Scherf et al.
# Submitted via: EasyCDDAExtractor 4.5.0.1
#
DISCID=b409140f
DTITLE=Lightnin' Slim - Rooster Blues
DYEAR=1960
DGENRE=blues
TTITLE0=Rooster Blues
TTITLE1=Long Leanie Mama
TTITLE2=My Starter Won't Work
TTITLE3=G.I. Slim
TTITLE4=Lightnin's Troubles
TTITLE5=Bed Bug Blues
TTITLE6=Hoo-Doo Blues
TTITLE7=It's Mighty Crazy
TTITLE8=Sweet Little Woman
TTITLE9=Tom Cat Blues
TTITLE10=Feelin' Awful Blues
TTITLE11=I'm Leavin' You Baby
TTITLE12=Lightnin's Blues
TTITLE13=Just Made Twenty-One
TTITLE14=Sugar Plum
EXTD=
EXTT0=
EXTT1=
EXTT2=
EXTT3=
EXTT4=
EXTT5=
EXTT6=
EXTT7=
EXTT8=
EXTT9=
EXTT10=
EXTT11=
EXTT12=
EXTT13=
EXTT14=
PLAYORDER=
